<svg width="32" height="32" viewBox="0 0 32 32" fill="none" xmlns="http://www.w3.org/2000/svg">
<circle cx="16" cy="16" r="15.8" fill="white"/>

<path d="M16 0.5C7.43959 0.5 0.5 7.43959 0.5 16C0.5 24.5604 7.43959 31.5 16 31.5C24.5604 31.5 31.5 24.5604 31.5 16C31.5 7.43959 24.5604 0.5 16 0.5Z" stroke="#006644" stroke-width="0.5"/>
<path d="M16 2C8.26801 2 2 8.26801 2 16C2 23.732 8.26801 30 16 30C23.732 30 30 23.732 30 16C30 8.26801 23.732 2 16 2Z" stroke="#C0A040" stroke-width="0.5"/>
<path d="M30.5 16C30.5 24.0081 24.0081 30.5 16 30.5C7.99187 30.5 1.5 24.0081 1.5 16C1.5 7.99187 7.99187 1.5 16 1.5C24.0081 1.5 30.5 7.99187 30.5 16Z" stroke="#006644" stroke-width="0.3" opacity="0.6"/>
<path d="M29 16C29 23.1797 23.1797 29 16 29C8.8203 29 3 23.1797 3 16C3 8.8203 8.8203 3 16 3C23.1797 3 29 8.8203 29 16Z" stroke="#C0A040" stroke-width="0.3" opacity="0.6"/>

<circle cx="16" cy="16" r="11" fill="#004D4D"/>
<circle cx="16" cy="16" r="10.5" stroke="#C0A040" stroke-width="0.8"/>

<path d="M16 8.5L18 10.5L16 12.5L14 10.5L16 8.5Z" fill="#00FFFF"/>
<path d="M16 8.5V23.5" stroke="#00FFFF" stroke-width="0.6" stroke-linecap="round"/>
<path d="M16 11.5L21.5 14V20L16 22.5" stroke="#00FFFF" stroke-width="0.6" stroke-linecap="round" stroke-linejoin="round"/>
<path d="M16 11.5L10.5 14V20L16 22.5" stroke="#00FFFF" stroke-width="0.6" stroke-linecap="round" stroke-linejoin="round"/>
<path d="M13.5 14L10.5 15.5V18.5L13.5 20" stroke="#00FFFF" stroke-width="0.5" stroke-linecap="round" stroke-linejoin="round"/>
<path d="M18.5 14L21.5 15.5V18.5L18.5 20" stroke="#00FFFF" stroke-width="0.5" stroke-linecap="round" stroke-linejoin="round"/>

<circle cx="16" cy="8.5" r="0.6" fill="#C0A040"/>
<circle cx="21.5" cy="14" r="0.6" fill="#C0A040"/>
<circle cx="10.5" cy="14" r="0.6" fill="#C0A040"/>
<circle cx="21.5" cy="20" r="0.6" fill="#C0A040"/>
<circle cx="10.5" cy="20" r="0.6" fill="#C0A040"/>
<circle cx="16" cy="23.5" r="0.6" fill="#C0A040"/>

<path d="M16 5L20.5 7.5V24.5L16 27" stroke="#C0A040" stroke-width="0.4" stroke-linecap="round" stroke-linejoin="round" opacity="0.8"/>
<path d="M16 5L11.5 7.5V24.5L16 27" stroke="#C0A040" stroke-width="0.4" stroke-linecap="round" stroke-linejoin="round" opacity="0.8"/>
<circle cx="16" cy="5" r="0.7" fill="#C0A040"/>
<circle cx="20.5" cy="7.5" r="0.7" fill="#C0A040"/>
<circle cx="11.5" cy="7.5" r="0.7" fill="#C0A040"/>
<circle cx="20.5" cy="24.5" r="0.7" fill="#C0A040"/>
<circle cx="11.5" cy="24.5" r="0.7" fill="#C0A040"/>
<circle cx="16" cy="27" r="0.7" fill="#C0A040"/>
<circle cx="7" cy="16" r="0.6" fill="#C0A040"/>
<circle cx="25" cy="16" r="0.6" fill="#C0A040"/>
<path d="M7 16L11.5 7.5" stroke="#C0A040" stroke-width="0.3" opacity="0.6"/>
<path d="M7 16L11.5 24.5" stroke="#C0A040" stroke-width="0.3" opacity="0.6"/>
<path d="M25 16L20.5 7.5" stroke="#C0A040" stroke-width="0.3" opacity="0.6"/>
<path d="M25 16L20.5 24.5" stroke="#C0A040" stroke-width="0.3" opacity="0.6"/>
</svg>